# xmcd CD database file
#
# Track frame offsets:
#	182
#	14440
#	44550
#	65047
#	83967
#	101612
#	114162
#	132452
#
# Disc length: 2091 seconds
#
# Revision: 0
# Processed by: cddbd v1.4PL0 Copyright (c) Steve Scherf et al.
# Submitted via: CDex 1.50beta10
#
DISCID=6c082908
DTITLE=Nappy Brown - Just For Me
DYEAR=1900
DGENRE=Blues
TTITLE0=You Must Be Crazy Woman
TTITLE1=Things Have Changed
TTITLE2=Just For Me
TTITLE3=We Need To Love Each Other
TTITLE4=What More Can I Say
TTITLE5=Bye Bye Baby
TTITLE6=Deep Sea Driver
TTITLE7=Night Time
EXTD=
EXTT0=
EXTT1=
EXTT2=
EXTT3=
EXTT4=
EXTT5=
EXTT6=
EXTT7=
PLAYORDER=
